<?xml version="1.0"?>
<svg xmlns="http://www.w3.org/2000/svg" xmlns:xlink="http://www.w3.org/1999/xlink" xmlns:svgjs="http://svgjs.com/svgjs" version="1.1" width="512" height="512" x="0" y="0" viewBox="0 0 512 512" style="enable-background:new 0 0 512 512" xml:space="preserve" class=""><g><g xmlns="http://www.w3.org/2000/svg"><g fill="#57a4ff"><path d="m408 160v72h-56v-32a32 32 0 0 0 -32-32h-128a32 32 0 0 0 -32 32v32h-56v-72a64 64 0 0 1 64-64h176a64 64 0 0 1 64 64z" fill="#f3f3f3" data-original="#57a4ff" style="" class=""/><path d="m64 336h384v40h-384z" fill="#f3f3f3" data-original="#57a4ff" style="" class=""/></g><path d="m64 336h384v40h-384z" fill="#f3f3f3" data-original="#57a4ff" style="" class=""/><g fill="#004fac"><path d="m464 408h-24v-24h8a8 8 0 0 0 8-8v-112a40.04 40.04 0 0 0 -40-40v-64a72.083 72.083 0 0 0 -72-72h-176a72.083 72.083 0 0 0 -72 72v64a40.04 40.04 0 0 0 -40 40v112a8 8 0 0 0 8 8h8v24h-56a8 8 0 0 0 0 16h448a8 8 0 0 0 0-16zm-352-248a56.062 56.062 0 0 1 56-56h176a56.062 56.062 0 0 1 56 56v64h-40v-24a40.04 40.04 0 0 0 -40-40h-128a40.04 40.04 0 0 0 -40 40v24h-40zm232 40v24h-176v-24a24.032 24.032 0 0 1 24-24h128a24.032 24.032 0 0 1 24 24zm-272 64a24.032 24.032 0 0 1 24-24h320a24.032 24.032 0 0 1 24 24v64h-368zm33.71 144h-17.71v-24h27.91zm17.38 0 10.2-24h245.42l10.2 24zm300.91 0h-17.71l-10.2-24h27.91zm-352-40v-24h368v24z" fill="#DA0037" data-original="#004fac" style="" class=""/><path d="m496 408h-8a8 8 0 0 0 0 16h8a8 8 0 0 0 0-16z" fill="#DA0037" data-original="#004fac" style="" class=""/><path d="m88 320h40a8 8 0 0 0 0-16h-40a8 8 0 0 0 0 16z" fill="#DA0037" data-original="#004fac" style="" class=""/><path d="m152 320h8a8 8 0 0 0 0-16h-8a8 8 0 0 0 0 16z" fill="#DA0037" data-original="#004fac" style="" class=""/></g></g></g></svg>
