<?xml version="1.0"?>
<svg xmlns="http://www.w3.org/2000/svg" xmlns:xlink="http://www.w3.org/1999/xlink" xmlns:svgjs="http://svgjs.com/svgjs" version="1.1" width="512" height="512" x="0" y="0" viewBox="0 0 512 512" style="enable-background:new 0 0 512 512" xml:space="preserve" class=""><g><g xmlns="http://www.w3.org/2000/svg"><g><g fill="#57a4ff"><path d="m79 384v24h144v-24zm-32-368v336h32v-120h144v120h240v-336zm80 176v-32h52a19.994 19.994 0 0 1 -20-20v-44h64v44a19.994 19.994 0 0 1 -20 20h52v32zm136 112v-48h112a24 24 0 0 1 0 48zm72-112v-120h48v-32h48v152zm-48 216h144v-24h-144z" fill="#f3f3f3" data-original="#57a4ff" style="" class=""/><path d="m79 384h144v24h-144z" fill="#f3f3f3" data-original="#57a4ff" style="" class=""/><path d="m287 384h144v24h-144z" fill="#f3f3f3" data-original="#57a4ff" style="" class=""/><path d="m79 384h144v24h-144z" fill="#f3f3f3" data-original="#57a4ff" style="" class=""/><path d="m287 384h144v24h-144z" fill="#f3f3f3" data-original="#57a4ff" style="" class=""/><path d="m95 448-8 48h-16l-8-48z" fill="#f3f3f3" data-original="#57a4ff" style="" class=""/><path d="m447 448-8 48h-16l-8-48z" fill="#f3f3f3" data-original="#57a4ff" style="" class=""/></g><path d="m423 328a24 24 0 0 1 -24 24h-112v-48h112a24.006 24.006 0 0 1 24 24z" fill="#f3f3f3" data-original="#57a4ff" style="" class=""/></g><g fill="#004fac"><path d="m464 8h-416a8 8 0 0 0 -8 8v432a8 8 0 0 0 8 8h9.22l6.89 41.32a8 8 0 0 0 7.89 6.68h16a8 8 0 0 0 7.89-6.68l6.89-41.32h306.44l6.89 41.32a8 8 0 0 0 7.89 6.68h16a8 8 0 0 0 7.89-6.68l6.89-41.32h9.22a8 8 0 0 0 8-8v-432a8 8 0 0 0 -8-8zm-382.78 480h-2.44l-5.34-32h13.12zm166.78-48h-192v-80h192zm-128-160v64h-32v-64zm-32-16v-24h32v24zm80 16v64h-32v-64zm-32-16v-24h32v24zm80 16v64h-32v-64zm-32-16v-24h32v24zm249.22 224h-2.44l-5.34-32h13.12zm22.78-48h-192v-80h192zm-80-144h-104v-32h104a16 16 0 0 1 0 32zm24 16a16 16 0 0 1 0 32h-104v-32zm56 32h-28.31a31.705 31.705 0 0 0 4.31-16 32.033 32.033 0 0 0 -28.42-31.79 31.986 31.986 0 0 0 -27.58-48.21h-112a8 8 0 0 0 -8 8v48a8 8 0 0 0 8 8h16v32h-48v-112a8 8 0 0 0 -8-8h-144a8 8 0 0 0 -8 8v112h-16v-144h400zm-208-176v16h-112v-16zm-80-28v-36h48v36a12.01 12.01 0 0 1 -12 12h-24a12.01 12.01 0 0 1 -12-12zm208-20v64h-32v-64zm-32-16v-24h32v24zm80-16v96h-32v-96zm-32-16v-24h32v24zm64 112h-16v-144a8 8 0 0 0 -8-8h-48a8 8 0 0 0 -8 8v24h-40a8 8 0 0 0 -8 8v112h-64v-24a8 8 0 0 0 -8-8h-26.71a27.75 27.75 0 0 0 2.71-12v-44a8 8 0 0 0 -8-8h-4.9l4.49-13.47a8 8 0 0 0 -15.18-5.06l-6.18 18.53h-10.23v-40a8 8 0 0 0 -16 0v40h-16a8 8 0 0 0 -8 8v44a27.75 27.75 0 0 0 2.71 12h-26.71a8 8 0 0 0 -8 8v24h-64v-160h400z" fill="#DA0037" data-original="#004fac" style="" class=""/><path d="m80 416h144a8 8 0 0 0 8-8v-24a8 8 0 0 0 -8-8h-144a8 8 0 0 0 -8 8v24a8 8 0 0 0 8 8zm8-24h128v8h-128z" fill="#DA0037" data-original="#004fac" style="" class=""/><path d="m280 384v24a8 8 0 0 0 8 8h144a8 8 0 0 0 8-8v-24a8 8 0 0 0 -8-8h-144a8 8 0 0 0 -8 8zm16 8h128v8h-128z" fill="#DA0037" data-original="#004fac" style="" class=""/><path d="m352 272h-56a8 8 0 0 0 0 16h56a8 8 0 0 0 0-16z" fill="#DA0037" data-original="#004fac" style="" class=""/><path d="m392 320h-72a8 8 0 0 0 0 16h72a8 8 0 0 0 0-16z" fill="#DA0037" data-original="#004fac" style="" class=""/></g></g></g></svg>
