<?xml version="1.0"?>
<svg xmlns="http://www.w3.org/2000/svg" xmlns:xlink="http://www.w3.org/1999/xlink" xmlns:svgjs="http://svgjs.com/svgjs" version="1.1" width="512" height="512" x="0" y="0" viewBox="0 0 512 512" style="enable-background:new 0 0 512 512" xml:space="preserve" class=""><g><g xmlns="http://www.w3.org/2000/svg"><path d="m316.24 38.12-142.08 73.88-46.16 24v5.54 146.46l56 24v-144l.62-.33 103.38-55.67 84.74-45.63z" fill="#f3f3f3" data-original="#57a4ff" style="" class=""/><path d="m467.58 104.84-192-96a8.018 8.018 0 0 0 -6.93-.1l-208 96a7.978 7.978 0 0 0 -4.65 7.26v288a7.978 7.978 0 0 0 4.65 7.26l208 96a8 8 0 0 0 6.93-.1l192-96a8.011 8.011 0 0 0 4.42-7.16v-288a8.011 8.011 0 0 0 -4.42-7.16zm-112.2-38.21-171.04 92.1-43.82-20.22 175.79-91.41zm-179.38 105.87v127.37l-40-17.15v-128.68zm95.86-147.62 26.77 13.38-174.32 90.64a8.37 8.37 0 0 0 -1.81 1.29l-39.41-18.19zm-7.86 458.62-192-88.62v-270.38l48 22.16v141.34a8 8 0 0 0 4.85 7.35l56 24a7.866 7.866 0 0 0 3.15.65 8 8 0 0 0 8-8v-132.11l72 33.23zm7.86-284.38-69.35-32 170.37-91.74 73.23 36.62zm184.14 195.94-176 88v-270.12l176-88z" fill="#DA0037" data-original="#004fac" style="" class=""/></g></g></svg>
