<?xml version="1.0"?>
<svg xmlns="http://www.w3.org/2000/svg" xmlns:xlink="http://www.w3.org/1999/xlink" xmlns:svgjs="http://svgjs.com/svgjs" version="1.1" width="512" height="512" x="0" y="0" viewBox="0 0 480 480" style="enable-background:new 0 0 512 512" xml:space="preserve" class=""><g><path xmlns="http://www.w3.org/2000/svg" d="m40 304h400v64h-400zm0 0" fill="#f3f3f3" data-original="#79bd9a" style="" class=""/><path xmlns="http://www.w3.org/2000/svg" d="m40 240h64c17.671875 0 32 14.328125 32 32v32h-96zm0 0" fill="#f3f3f3" data-original="#a8dba8" style="" class=""/><path xmlns="http://www.w3.org/2000/svg" d="m40 112h400v64h-400zm0 0" fill="#f3f3f3" data-original="#79bd9a" style="" class=""/><path xmlns="http://www.w3.org/2000/svg" d="m40 48h64c17.671875 0 32 14.328125 32 32v32h-96zm0 0" fill="#f3f3f3" data-original="#a8dba8" style="" class=""/><path xmlns="http://www.w3.org/2000/svg" d="m456 352v-344h-16v408h32v-48c-8.835938 0-16-7.164062-16-16zm0 0" fill="#f3f3f3" data-original="#cff09e" style="" class=""/><path xmlns="http://www.w3.org/2000/svg" d="m24 352v-344h-16v408h32v-48c-8.835938 0-16-7.164062-16-16zm0 0" fill="#f3f3f3" data-original="#cff09e" style="" class=""/><path xmlns="http://www.w3.org/2000/svg" d="m472 0h-32c-4.417969 0-8 3.582031-8 8v96h-16v-40c0-4.417969-3.582031-8-8-8s-8 3.582031-8 8v40h-80v-40c0-4.417969-3.582031-8-8-8s-8 3.582031-8 8v40h-48v-16h16c4.417969 0 8-3.582031 8-8s-3.582031-8-8-8h-128.800781c-3.800781-18.625-20.1875-32.003906-39.199219-32h-56v-32c0-4.417969-3.582031-8-8-8h-32c-4.417969 0-8 3.582031-8 8v408c0 4.417969 3.582031 8 8 8h32c4.417969 0 8-3.582031 8-8v-40h256v40c0 4.417969 3.582031 8 8 8s8-3.582031 8-8v-40h80v40c0 4.417969 3.582031 8 8 8s8-3.582031 8-8v-40h16v40c0 4.417969 3.582031 8 8 8h32c4.417969 0 8-3.582031 8-8v-408c0-4.417969-3.582031-8-8-8zm-72 328h-80v-16h80zm-80-32v-16h80v16zm-120 0v-16h40v16zm-56 0v-16h40v16zm-56 0v-16h40v16zm-40 0v-16h24v16zm80-208v16h-40v-16zm16 16v-16h40v16zm-72 0h-24v-16h24zm-24 160v-16h56c10.144531.027344 19.179688 6.433594 22.558594 16zm208 16h16c4.417969 0 8-3.582031 8-8s-3.582031-8-8-8h-128.800781c-3.800781-18.625-20.1875-32.003906-39.199219-32h-56v-48h256v112h-48zm64-128h80v16h-80zm80 32v16h-80v-16zm-80 32h80v48h-80zm96-32h16v112h-16zm16-64v48h-16v-48zm-32 0v16h-80v-16zm-96 48h-256v-48h256zm-64-64h-40v-16h40zm-136-48c10.144531.027344 19.179688 6.433594 22.558594 16h-78.558594v-16zm-72 352h-16v-392h16zm16-48v-48h256v48zm272 0v-16h80v16zm96 0v-48h16v48zm48 48h-16v-392h16zm0 0" fill="#DA0037" data-original="#3b8686" style="" class=""/></g></svg>
