<?xml version="1.0"?>
<svg xmlns="http://www.w3.org/2000/svg" xmlns:xlink="http://www.w3.org/1999/xlink" xmlns:svgjs="http://svgjs.com/svgjs" version="1.1" width="512" height="512" x="0" y="0" viewBox="0 0 512 512" style="enable-background:new 0 0 512 512" xml:space="preserve" class=""><g><g xmlns="http://www.w3.org/2000/svg"><g fill="#57a4ff"><path d="m72 184h48v48h-48z" fill="#acb3c2" data-original="#57a4ff" style="" class=""/><path d="m72 264h48v48h-48z" fill="#acb3c2" data-original="#57a4ff" style="" class=""/><path d="m72 344h48v48h-48z" fill="#acb3c2" data-original="#57a4ff" style="" class=""/><path d="m152 184h48v48h-48z" fill="#acb3c2" data-original="#57a4ff" style="" class=""/><path d="m152 264h48v48h-48z" fill="#acb3c2" data-original="#57a4ff" style="" class=""/><path d="m152 344h48v48h-48z" fill="#acb3c2" data-original="#57a4ff" style="" class=""/><path d="m232 184h48v48h-48z" fill="#acb3c2" data-original="#57a4ff" style="" class=""/><path d="m232 264h48v48h-48z" fill="#acb3c2" data-original="#57a4ff" style="" class=""/><path d="m232 344h48v48h-48z" fill="#acb3c2" data-original="#57a4ff" style="" class=""/><path d="m312 184h48v48h-48z" fill="#acb3c2" data-original="#57a4ff" style="" class=""/><path d="m312 264h48v48h-48z" fill="#acb3c2" data-original="#57a4ff" style="" class=""/><path d="m392 184h48v48h-48z" fill="#acb3c2" data-original="#57a4ff" style="" class=""/><path d="m392 264h48v48h-48z" fill="#acb3c2" data-original="#57a4ff" style="" class=""/><path d="m496 100v44h-480v-44a19.994 19.994 0 0 1 20-20h20v32h32v-32h96v32h32v-32h96v32h32v-32h80v32h32v-32h20a19.994 19.994 0 0 1 20 20z" fill="#acb3c2" data-original="#57a4ff" style="" class=""/><path d="m232 184h48v48h-48z" fill="#acb3c2" data-original="#57a4ff" style="" class=""/><path d="m152 184h48v48h-48z" fill="#acb3c2" data-original="#57a4ff" style="" class=""/><path d="m72 184h48v48h-48z" fill="#acb3c2" data-original="#57a4ff" style="" class=""/><path d="m312 184h48v48h-48z" fill="#acb3c2" data-original="#57a4ff" style="" class=""/><path d="m392 184h48v48h-48z" fill="#acb3c2" data-original="#57a4ff" style="" class=""/><path d="m232 264h48v48h-48z" fill="#acb3c2" data-original="#57a4ff" style="" class=""/><path d="m152 264h48v48h-48z" fill="#acb3c2" data-original="#57a4ff" style="" class=""/><path d="m72 264h48v48h-48z" fill="#acb3c2" data-original="#57a4ff" style="" class=""/><path d="m312 264h48v48h-48z" fill="#acb3c2" data-original="#57a4ff" style="" class=""/><path d="m392 264h48v48h-48z" fill="#acb3c2" data-original="#57a4ff" style="" class=""/><path d="m232 344h48v48h-48z" fill="#acb3c2" data-original="#57a4ff" style="" class=""/><path d="m152 344h48v48h-48z" fill="#acb3c2" data-original="#57a4ff" style="" class=""/><path d="m72 344h48v48h-48z" fill="#acb3c2" data-original="#57a4ff" style="" class=""/></g><g fill="#004fac"><path d="m476 72h-12v-24a8 8 0 0 0 -8-8h-32a8 8 0 0 0 -8 8v24h-64v-24a8 8 0 0 0 -8-8h-32a8 8 0 0 0 -8 8v24h-80v-24a8 8 0 0 0 -8-8h-32a8 8 0 0 0 -8 8v24h-80v-24a8 8 0 0 0 -8-8h-32a8 8 0 0 0 -8 8v24h-12a28.031 28.031 0 0 0 -28 28v344a28.031 28.031 0 0 0 28 28h440a28.031 28.031 0 0 0 28-28v-344a28.031 28.031 0 0 0 -28-28zm-44-16h16v48h-16zm-112 0h16v48h-16zm-128 0h16v48h-16zm-128 0h16v48h-16zm424 388a12.01 12.01 0 0 1 -12 12h-440a12.01 12.01 0 0 1 -12-12v-292h464zm0-308h-464v-36a12.01 12.01 0 0 1 12-12h12v24a8 8 0 0 0 8 8h32a8 8 0 0 0 8-8v-24h80v24a8 8 0 0 0 8 8h32a8 8 0 0 0 8-8v-24h80v24a8 8 0 0 0 8 8h32a8 8 0 0 0 8-8v-24h64v24a8 8 0 0 0 8 8h32a8 8 0 0 0 8-8v-24h12a12.01 12.01 0 0 1 12 12z" fill="#4c5464" data-original="#004fac" style="" class=""/><path d="m280 176h-48a8 8 0 0 0 -8 8v48a8 8 0 0 0 8 8h48a8 8 0 0 0 8-8v-48a8 8 0 0 0 -8-8zm-8 48h-32v-32h32z" fill="#4c5464" data-original="#004fac" style="" class=""/><path d="m200 176h-48a8 8 0 0 0 -8 8v48a8 8 0 0 0 8 8h48a8 8 0 0 0 8-8v-48a8 8 0 0 0 -8-8zm-8 48h-32v-32h32z" fill="#4c5464" data-original="#004fac" style="" class=""/><path d="m120 176h-48a8 8 0 0 0 -8 8v48a8 8 0 0 0 8 8h48a8 8 0 0 0 8-8v-48a8 8 0 0 0 -8-8zm-8 48h-32v-32h32z" fill="#4c5464" data-original="#004fac" style="" class=""/><path d="m360 176h-48a8 8 0 0 0 -8 8v48a8 8 0 0 0 8 8h48a8 8 0 0 0 8-8v-48a8 8 0 0 0 -8-8zm-8 48h-32v-32h32z" fill="#4c5464" data-original="#004fac" style="" class=""/><path d="m440 176h-48a8 8 0 0 0 -8 8v48a8 8 0 0 0 8 8h48a8 8 0 0 0 8-8v-48a8 8 0 0 0 -8-8zm-8 48h-32v-32h32z" fill="#4c5464" data-original="#004fac" style="" class=""/><path d="m280 256h-48a8 8 0 0 0 -8 8v48a8 8 0 0 0 8 8h48a8 8 0 0 0 8-8v-48a8 8 0 0 0 -8-8zm-8 48h-32v-32h32z" fill="#4c5464" data-original="#004fac" style="" class=""/><path d="m200 256h-48a8 8 0 0 0 -8 8v48a8 8 0 0 0 8 8h48a8 8 0 0 0 8-8v-48a8 8 0 0 0 -8-8zm-8 48h-32v-32h32z" fill="#4c5464" data-original="#004fac" style="" class=""/><path d="m120 256h-48a8 8 0 0 0 -8 8v48a8 8 0 0 0 8 8h48a8 8 0 0 0 8-8v-48a8 8 0 0 0 -8-8zm-8 48h-32v-32h32z" fill="#4c5464" data-original="#004fac" style="" class=""/><path d="m360 256h-48a8 8 0 0 0 -8 8v48a8 8 0 0 0 8 8h48a8 8 0 0 0 8-8v-48a8 8 0 0 0 -8-8zm-8 48h-32v-32h32z" fill="#4c5464" data-original="#004fac" style="" class=""/><path d="m440 256h-48a8 8 0 0 0 -8 8v48a8 8 0 0 0 8 8h48a8 8 0 0 0 8-8v-48a8 8 0 0 0 -8-8zm-8 48h-32v-32h32z" fill="#4c5464" data-original="#004fac" style="" class=""/><path d="m280 336h-48a8 8 0 0 0 -8 8v48a8 8 0 0 0 8 8h48a8 8 0 0 0 8-8v-48a8 8 0 0 0 -8-8zm-8 48h-32v-32h32z" fill="#4c5464" data-original="#004fac" style="" class=""/><path d="m200 336h-48a8 8 0 0 0 -8 8v48a8 8 0 0 0 8 8h48a8 8 0 0 0 8-8v-48a8 8 0 0 0 -8-8zm-8 48h-32v-32h32z" fill="#4c5464" data-original="#004fac" style="" class=""/><path d="m120 336h-48a8 8 0 0 0 -8 8v48a8 8 0 0 0 8 8h48a8 8 0 0 0 8-8v-48a8 8 0 0 0 -8-8zm-8 48h-32v-32h32z" fill="#4c5464" data-original="#004fac" style="" class=""/></g></g></g></svg>
