<?xml version="1.0"?>
<svg xmlns="http://www.w3.org/2000/svg" xmlns:xlink="http://www.w3.org/1999/xlink" xmlns:svgjs="http://svgjs.com/svgjs" version="1.1" width="512" height="512" x="0" y="0" viewBox="0 0 512 512" style="enable-background:new 0 0 512 512" xml:space="preserve" class=""><g><g xmlns="http://www.w3.org/2000/svg"><g fill="#57a4ff"><path d="m96 272h320v56h-320z" fill="#f3f3f3" data-original="#57a4ff" style="" class=""/><path d="m128 40h256v120h-256z" fill="#f3f3f3" data-original="#57a4ff" style="" class=""/></g><g fill="#004fac"><path d="m416 264h-40v-96h8a8 8 0 0 0 8-8v-120a8 8 0 0 0 -8-8h-8v-16a8 8 0 0 0 -8-8h-24a8 8 0 0 0 -8 8v16h-160v-16a8 8 0 0 0 -8-8h-24a8 8 0 0 0 -8 8v16h-8a8 8 0 0 0 -8 8v120a8 8 0 0 0 8 8h8v96h-40a8 8 0 0 0 -8 8v56a8 8 0 0 0 8 8h8v160a8 8 0 0 0 8 8h24a8 8 0 0 0 8-8v-160h224v160a8 8 0 0 0 8 8h24a8 8 0 0 0 8-8v-160h8a8 8 0 0 0 8-8v-56a8 8 0 0 0 -8-8zm-64-240h8v8h-8zm-200 0h8v8h-8zm-16 24h240v104h-240zm224 120v96h-8v-96zm-24 0v96h-160v-96zm-176 0v96h-8v-96zm-32 320h-8v-152h8zm264 0h-8v-152h8zm16-168h-304v-40h304z" fill="#DA0037" data-original="#004fac" style="" class=""/><path d="m160 80h48a8 8 0 0 0 0-16h-48a8 8 0 0 0 0 16z" fill="#DA0037" data-original="#004fac" style="" class=""/><path d="m232 80h8a8 8 0 0 0 0-16h-8a8 8 0 0 0 0 16z" fill="#DA0037" data-original="#004fac" style="" class=""/></g></g></g></svg>
