<?xml version="1.0"?>
<svg xmlns="http://www.w3.org/2000/svg" xmlns:xlink="http://www.w3.org/1999/xlink" xmlns:svgjs="http://svgjs.com/svgjs" version="1.1" width="512" height="512" x="0" y="0" viewBox="0 0 512 512" style="enable-background:new 0 0 512 512" xml:space="preserve" class=""><g><g xmlns="http://www.w3.org/2000/svg"><g fill="#57a4ff"><path d="m56 472h128v-208h-128zm24-184h80v48h-80zm0 72h80v48h-80z" fill="#f3f3f3" data-original="#57a4ff" style="" class=""/><path d="m112 168h32v64h-32z" fill="#f3f3f3" data-original="#57a4ff" style="" class=""/><path d="m48 144h32v88h-32z" fill="#f3f3f3" data-original="#57a4ff" style="" class=""/><path d="m408 128h32v80h-32z" fill="#f3f3f3" data-original="#57a4ff" style="" class=""/><path d="m336 67.72a20 20 0 0 0 -28.28 0l-19.8 19.79 11.31 11.32 33.94 33.94 11.32 11.31 19.79-19.8a20 20 0 0 0 0-28.28z" fill="#f3f3f3" data-original="#57a4ff" style="" class=""/></g><g fill="#004fac"><path d="m496 224h-16v-16a8 8 0 0 0 -8-8h-24v-72a8 8 0 0 0 -8-8h-7.5v-63.01a28 28 0 0 0 -46.93-20.63l-12.77 11.72a18.04 18.04 0 0 0 -24.07 1.25l-10.1 10.1a28.016 28.016 0 0 0 -36.57 2.63l-19.8 19.8a8 8 0 0 0 0 11.31l6.37 6.37a32.023 32.023 0 0 0 43.83 43.83l6.37 6.37a8 8 0 0 0 11.31 0l19.8-19.8a28.016 28.016 0 0 0 2.63-36.57l10.1-10.1a18.011 18.011 0 0 0 1.42-23.83l12.3-11.29a12 12 0 0 1 20.11 8.84v63.01h-8.5a8 8 0 0 0 -8 8v72h-24a8 8 0 0 0 -8 8v16h-16v-32a7.992 7.992 0 0 0 -9.57-7.84l-78.43 15.68-78.43-15.68a7.992 7.992 0 0 0 -9.57 7.84v32h-24v-56a8 8 0 0 0 -8-8h-24v-32a8 8 0 0 0 -8-8h-32a8 8 0 0 0 -8 8v8h-24a8 8 0 0 0 -8 8v80h-24a8 8 0 0 0 -8 8v32a8 8 0 0 0 8 8h8v200a8 8 0 0 0 8 8h176a8 8 0 0 0 8-8v-200h232v200a8 8 0 0 0 8 8h24a8 8 0 0 0 8-8v-200h8a8 8 0 0 0 8-8v-32a8 8 0 0 0 -8-8zm-179.8-92.2a15.942 15.942 0 0 1 -15.44-20.13l19.57 19.57a15.767 15.767 0 0 1 -4.13.56zm42.43-13.17-14.14 14.14-39.6-39.59v-.01h-.01l-5.65-5.66 14.14-14.14a12.011 12.011 0 0 1 16.97 0l28.29 28.29a12.011 12.011 0 0 1 0 16.97zm12.73-46.67-9.9 9.9-5.66-5.66-5.66-5.66 9.9-9.89a2 2 0 0 1 2.83 0l8.49 8.48a2 2 0 0 1 0 2.83zm44.64 64.04h16v64h-16zm-32 80h80v8h-80zm-112-1.44 64-12.8v22.24h-64zm-80-12.8 64 12.8v9.44h-64zm-72-25.76h16v48h-16zm-32-40h16v88h-16zm-32 16h16v72h-16zm-8 312h-8v-192h8zm128 0h-112v-192h112zm24 0h-8v-192h8zm272 0h-8v-192h8zm16-208h-464v-16h464z" fill="#DA0037" data-original="#004fac" style="" class=""/><path d="m160 280h-80a8 8 0 0 0 -8 8v48a8 8 0 0 0 8 8h80a8 8 0 0 0 8-8v-48a8 8 0 0 0 -8-8zm-8 48h-64v-32h64z" fill="#DA0037" data-original="#004fac" style="" class=""/><path d="m160 352h-80a8 8 0 0 0 -8 8v48a8 8 0 0 0 8 8h80a8 8 0 0 0 8-8v-48a8 8 0 0 0 -8-8zm-8 48h-64v-32h64z" fill="#DA0037" data-original="#004fac" style="" class=""/><path d="m112 320h16a8 8 0 0 0 0-16h-16a8 8 0 0 0 0 16z" fill="#DA0037" data-original="#004fac" style="" class=""/><path d="m112 392h16a8 8 0 0 0 0-16h-16a8 8 0 0 0 0 16z" fill="#DA0037" data-original="#004fac" style="" class=""/></g></g></g></svg>
