<?xml version="1.0"?>
<svg xmlns="http://www.w3.org/2000/svg" xmlns:xlink="http://www.w3.org/1999/xlink" xmlns:svgjs="http://svgjs.com/svgjs" version="1.1" width="512" height="512" x="0" y="0" viewBox="0 0 512 512" style="enable-background:new 0 0 512 512" xml:space="preserve" class=""><g><g xmlns="http://www.w3.org/2000/svg"><g fill="#57a4ff"><g><path d="m392 449.38v15h-272v-15a23.968 23.968 0 0 1 14.62 14.62h105.38a16 16 0 1 1 32 0h105.38a23.968 23.968 0 0 1 14.62-14.62z" fill="#f3f3f3" data-original="#000000" style="" class=""/><path d="m240 256h32v48h-32z" fill="#f3f3f3" data-original="#000000" style="" class=""/><path d="m240 360h32v64h-32z" fill="#f3f3f3" data-original="#000000" style="" class=""/><path d="m136 472a24 24 0 1 1 -24-24 23.6 23.6 0 0 1 8 1.38 23.968 23.968 0 0 1 14.62 14.62 1.9 1.9 0 0 1 .13.38 23.731 23.731 0 0 1 1.25 7.62z" fill="#f3f3f3" data-original="#000000" style="" class=""/><path d="m424 472a24 24 0 0 1 -48 0 23.731 23.731 0 0 1 1.25-7.62 1.9 1.9 0 0 1 .13-.38 23.968 23.968 0 0 1 14.62-14.62 23.6 23.6 0 0 1 8-1.38 24.006 24.006 0 0 1 24 24z" fill="#f3f3f3" data-original="#000000" style="" class=""/></g><path d="m272 464v16a16 16 0 0 1 -32 0v-16a16 16 0 1 1 32 0z" fill="#f3f3f3" data-original="#57a4ff" style="" class=""/></g><g fill="#004fac"><path d="m440 200h-32a24.032 24.032 0 0 0 -24 24v16a8 8 0 0 0 8 8h24v88h-8v-12a28.031 28.031 0 0 0 -28-28h-100v-32h60a28.031 28.031 0 0 0 28-28v-200a28.031 28.031 0 0 0 -28-28h-168a28.031 28.031 0 0 0 -28 28v200a28.031 28.031 0 0 0 28 28h60v32h-100a28.031 28.031 0 0 0 -28 28v12h-8v-88h24a8 8 0 0 0 8-8v-16a24.032 24.032 0 0 0 -24-24h-32a24.032 24.032 0 0 0 -24 24v16a8 8 0 0 0 8 8h24v96a8 8 0 0 0 8 8h16v8a8 8 0 0 0 8 8h120v48h-112a8 8 0 0 0 -8 8v16a32 32 0 1 0 32 32h88v8a24 24 0 0 0 48 0v-8h88a32 32 0 1 0 32-32v-16a8 8 0 0 0 -8-8h-112v-48h120a8 8 0 0 0 8-8v-8h16a8 8 0 0 0 8-8v-96h24a8 8 0 0 0 8-8v-16a24.032 24.032 0 0 0 -24-24zm-376 32v-8a8.011 8.011 0 0 1 8-8h32a8.011 8.011 0 0 1 8 8v8zm108 16a12.01 12.01 0 0 1 -12-12v-200a12.01 12.01 0 0 1 12-12h168a12.01 12.01 0 0 1 12 12v200a12.01 12.01 0 0 1 -12 12zm92 16v32h-16v-32zm-152 224a16 16 0 1 1 16-16 16.021 16.021 0 0 1 -16 16zm152-8a8 8 0 0 1 -16 0v-16a8 8 0 0 1 16 0zm136-24a16 16 0 1 1 -16 16 16.021 16.021 0 0 1 16-16zm-16-24v12.31a32.12 32.12 0 0 0 -11.69 11.69h-93.69a23.99 23.99 0 0 0 -45.24 0h-93.69a32.12 32.12 0 0 0 -11.69-11.69v-12.31zm-136-16v-48h16v48zm144-64h-272v-28a12.01 12.01 0 0 1 12-12h248a12.01 12.01 0 0 1 12 12zm56-120h-48v-8a8.011 8.011 0 0 1 8-8h32a8.011 8.011 0 0 1 8 8z" fill="#DA0037" data-original="#004fac" style="" class=""/><circle cx="112" cy="472" r="8" fill="#DA0037" data-original="#004fac" style="" class=""/><circle cx="400" cy="472" r="8" fill="#DA0037" data-original="#004fac" style="" class=""/></g></g></g></svg>
