<?xml version="1.0"?>
<svg xmlns="http://www.w3.org/2000/svg" xmlns:xlink="http://www.w3.org/1999/xlink" xmlns:svgjs="http://svgjs.com/svgjs" version="1.1" width="512" height="512" x="0" y="0" viewBox="0 0 512 512" style="enable-background:new 0 0 512 512" xml:space="preserve" class=""><g><g xmlns="http://www.w3.org/2000/svg"><g><path d="m256 192a112 112 0 1 0 112 112 111.995 111.995 0 0 0 -112-112zm0 200a88 88 0 1 1 88-88 88 88 0 0 1 -88 88z" fill="#f3f3f3" data-original="#57a4ff" style="" class=""/><path d="m16 216h112v56h-112z" fill="#f3f3f3" data-original="#57a4ff" style="" class=""/><g fill="#57a4ff"><path d="m496 208h-144l40-24h64z" fill="#f3f3f3" data-original="#57a4ff" style="" class=""/><path d="m496 208-40 24h-64l-40-24z" fill="#f3f3f3" data-original="#57a4ff" style="" class=""/><path d="m280 128h88v40h-88z" fill="#f3f3f3" data-original="#57a4ff" style="" class=""/><path d="m144 128h88v40h-88z" fill="#f3f3f3" data-original="#57a4ff" style="" class=""/></g></g><g fill="#004fac"><path d="m256 208a96 96 0 1 0 96 96 96.108 96.108 0 0 0 -96-96zm0 176a80 80 0 1 1 80-80 80.091 80.091 0 0 1 -80 80z" fill="#DA0037" data-original="#004fac" style="" class=""/><path d="m128 184h-112a8 8 0 0 0 -8 8v80a8 8 0 0 0 8 8h24v16a8 8 0 0 0 8 8h16v16h-8a8 8 0 0 0 -16 0v16a8 8 0 0 0 16 0h8v28.69l-45.66 45.65a8 8 0 0 0 11.32 11.32l34.34-34.35v20.69a8 8 0 0 0 16 0v-20.69l34.34 34.35a8 8 0 1 0 11.32-11.32l-45.66-45.65v-60.69h16a8 8 0 0 0 8-8v-16h24a8 8 0 0 0 8-8v-80a8 8 0 0 0 -8-8zm-40 104h-32v-8h32zm32-24h-96v-40h96zm0-56h-96v-8h96z" fill="#DA0037" data-original="#004fac" style="" class=""/><path d="m280 176h88a8 8 0 0 0 8-8v-64a8 8 0 0 0 -8-8h-88a8 8 0 0 0 -8 8v32h-32v-32a8 8 0 0 0 -8-8h-88a8 8 0 0 0 -8 8v64a8 8 0 0 0 8 8h88a8 8 0 0 0 8-8v-16h8v32.27a119.937 119.937 0 0 0 -73.57 207.66l-13.09 19.63a8 8 0 0 0 13.32 8.88l12.25-18.38a119.754 119.754 0 0 0 138.18 0l12.25 18.38a8 8 0 0 0 13.32-8.88l-13.09-19.63a119.937 119.937 0 0 0 -73.57-207.66v-32.27h8v16a8 8 0 0 0 8 8zm8-64h72v8h-72zm0 24h72v24h-72zm-64 24h-72v-24h72zm0-40h-72v-8h72zm136 184a104 104 0 1 1 -104-104 104.112 104.112 0 0 1 104 104z" fill="#DA0037" data-original="#004fac" style="" class=""/><path d="m503.94 207.04c-.01-.08-.03-.16-.04-.25-.04-.24-.08-.48-.14-.71l-.06-.24c-.08-.27-.17-.53-.27-.79l-.03-.09a6.836 6.836 0 0 0 -.42-.86c-.03-.05-.06-.1-.09-.16-.13-.21-.26-.42-.41-.62-.05-.07-.11-.15-.17-.22-.14-.19-.3-.37-.46-.55-.05-.05-.1-.11-.15-.16a6.574 6.574 0 0 0 -.68-.61c-.06-.05-.12-.09-.18-.14a6.578 6.578 0 0 0 -.61-.42c-.04-.02-.07-.06-.11-.08l-40-24a7.993 7.993 0 0 0 -4.12-1.14h-8v-16a8 8 0 0 0 -8-8h-8v-8a8 8 0 0 0 -16 0v8h-8a8 8 0 0 0 -8 8v16h-8a7.993 7.993 0 0 0 -4.12 1.14l-40 24c-.04.02-.07.06-.11.08a6.578 6.578 0 0 0 -.61.42c-.06.05-.12.09-.18.14a6.574 6.574 0 0 0 -.68.61c-.05.05-.1.11-.15.16-.16.18-.32.36-.46.55-.06.07-.12.15-.17.22-.15.2-.28.41-.41.62-.03.06-.06.11-.09.16a6.836 6.836 0 0 0 -.42.86l-.03.09c-.1.26-.19.52-.27.79l-.06.24c-.06.23-.1.47-.14.71-.01.09-.03.17-.04.25a7.71 7.71 0 0 0 0 1.92c.01.08.03.16.04.25.04.24.08.48.14.71l.06.24c.08.27.17.53.27.79l.03.09a6.836 6.836 0 0 0 .42.86c.03.05.06.1.09.16.13.21.26.42.41.62.05.07.11.15.17.22.14.19.3.37.46.55.05.05.1.11.15.16a6.574 6.574 0 0 0 .68.61c.06.05.12.09.18.14a6.578 6.578 0 0 0 .61.42c.04.02.07.06.11.08l40 24a7.993 7.993 0 0 0 4.12 1.14h8v16a8 8 0 0 0 8 8h8v48h-8a8 8 0 0 0 -16 0v16a8 8 0 0 0 16 0h8v43.88l-52.65 37.61a8 8 0 0 0 9.3 13.02l43.35-30.96v16.45a8 8 0 0 0 16 0v-16.46l43.35 30.97a8 8 0 0 0 9.3-13.02l-52.65-37.61v-107.88h8a8 8 0 0 0 8-8v-16h8a7.993 7.993 0 0 0 4.12-1.14l40-24c.04-.02.07-.06.11-.08a6.578 6.578 0 0 0 .61-.42c.06-.05.12-.09.18-.14a6.574 6.574 0 0 0 .68-.61c.05-.05.1-.11.15-.16.16-.18.32-.36.46-.55.06-.07.12-.15.17-.22.15-.2.28-.41.41-.62.03-.06.06-.11.09-.16a6.836 6.836 0 0 0 .42-.86l.03-.09c.1-.26.19-.52.27-.79l.06-.24c.06-.23.1-.47.14-.71.01-.09.03-.17.04-.25a7.71 7.71 0 0 0 0-1.92zm-87.94-39.04h16v8h-16zm16 80h-16v-8h16zm21.78-24h-59.56l-13.34-8h86.24zm-72.9-24 13.34-8h59.56l13.34 8z" fill="#DA0037" data-original="#004fac" style="" class=""/></g></g></g></svg>
