<?xml version="1.0"?>
<svg xmlns="http://www.w3.org/2000/svg" xmlns:xlink="http://www.w3.org/1999/xlink" xmlns:svgjs="http://svgjs.com/svgjs" version="1.1" width="512" height="512" x="0" y="0" viewBox="0 0 64 64" style="enable-background:new 0 0 512 512" xml:space="preserve" class=""><g><path xmlns="http://www.w3.org/2000/svg" d="m20 59h3v3h-3z" fill="#f3f3f3" data-original="#57a4ff" style="" class=""/><path xmlns="http://www.w3.org/2000/svg" d="m41 59h3v3h-3z" fill="#f3f3f3" data-original="#57a4ff" style="" class=""/><path xmlns="http://www.w3.org/2000/svg" d="m21 20h22v3h-22z" fill="#f3f3f3" data-original="#57a4ff" style="" class=""/><g xmlns="http://www.w3.org/2000/svg" fill="#004fac"><path d="m45 21a1 1 0 0 0 1-1v-18a1 1 0 0 0 -1-1h-26a1 1 0 0 0 -1 1v18a1 1 0 0 0 1 1h1v1h-1a1 1 0 0 0 -1 1v36a1 1 0 0 0 1 1v2a1 1 0 0 0 1 1h3a1 1 0 0 0 1-1v-2h16v2a1 1 0 0 0 1 1h3a1 1 0 0 0 1-1v-2a1 1 0 0 0 1-1v-36a1 1 0 0 0 -1-1h-1v-1zm-25-18h24v16h-24zm0 21h24v34h-24zm2 37h-1v-1h1zm21 0h-1v-1h1zm-1-39h-20v-1h20z" fill="#DA0037" data-original="#004fac" style="" class=""/><path d="m22 14a1 1 0 0 0 1-1v-5a1 1 0 0 0 -2 0v5a1 1 0 0 0 1 1z" fill="#DA0037" data-original="#004fac" style="" class=""/><path d="m23 28a1 1 0 0 0 -2 0v5a1 1 0 0 0 2 0z" fill="#DA0037" data-original="#004fac" style="" class=""/><path d="m32 57h5a1 1 0 0 0 0-2h-5a1 1 0 0 0 0 2z" fill="#DA0037" data-original="#004fac" style="" class=""/><path d="m40 57h1a1 1 0 0 0 0-2h-1a1 1 0 0 0 0 2z" fill="#DA0037" data-original="#004fac" style="" class=""/></g></g></svg>
