<?xml version="1.0"?>
<svg xmlns="http://www.w3.org/2000/svg" xmlns:xlink="http://www.w3.org/1999/xlink" xmlns:svgjs="http://svgjs.com/svgjs" version="1.1" width="512" height="512" x="0" y="0" viewBox="0 0 512 512" style="enable-background:new 0 0 512 512" xml:space="preserve" class=""><g><g xmlns="http://www.w3.org/2000/svg"><g fill="#57a4ff"><path d="m296 16-8 96h-64l-8-96z" fill="#f3f3f3" data-original="#57a4ff" style="" class=""/><path d="m327.31 332.31a80.052 80.052 0 0 0 -55.31-114.7v54.39h-32v-54.39a80.052 80.052 0 0 0 -55.31 114.7 103.633 103.633 0 0 0 -32.69 75.69c0 57.44 46.56 88 104 88s104-30.56 104-88a103.633 103.633 0 0 0 -32.69-75.69zm-71.31-36.31a32 32 0 1 1 -32 32 32 32 0 0 1 32-32zm40 136h-80v-24h80z" fill="#f3f3f3" data-original="#57a4ff" style="" class=""/></g><g fill="#004fac"><path d="m336.94 330.6a87.119 87.119 0 0 0 7.06-34.6 88.267 88.267 0 0 0 -64-84.66v-91.34h8a8 8 0 0 0 7.97-7.34l2.06-24.66h5.97a8 8 0 0 0 0-16h-4.64l1.33-16h3.31a8 8 0 0 0 0-16h-1.97l1.94-23.34a7.987 7.987 0 0 0 -7.97-8.66h-80a7.987 7.987 0 0 0 -7.97 8.66l1.94 23.34h-1.97a8 8 0 0 0 0 16h3.31l1.33 16h-4.64a8 8 0 0 0 0 16h5.97l2.06 24.66a8 8 0 0 0 7.97 7.34h8v91.34a88.267 88.267 0 0 0 -64 84.66 87.119 87.119 0 0 0 7.06 34.6 112.418 112.418 0 0 0 -31.06 77.4c0 29.73 11.59 54.56 33.51 71.83 19.8 15.59 47.67 24.17 78.49 24.17s58.69-8.58 78.49-24.17c21.92-17.27 33.51-42.1 33.51-71.83a112.418 112.418 0 0 0 -31.06-77.4zm-105.58-226.6-6.67-80h62.62l-6.67 80zm16.64 128v-16h16v16zm16 16v16h-16v-16zm-16-48v-16h16v16zm0-32v-16h16v16zm0-32v-16h16v16zm76.59 331.25c-16.99 13.38-41.35 20.75-68.59 20.75s-51.6-7.37-68.59-20.75c-17.93-14.12-27.41-34.61-27.41-59.25a95.068 95.068 0 0 1 30.17-69.87 7.992 7.992 0 0 0 1.65-9.45 71.323 71.323 0 0 1 -7.82-32.68 72.255 72.255 0 0 1 48-67.89v43.89a8 8 0 0 0 8 8h32a8 8 0 0 0 8-8v-43.89a72.255 72.255 0 0 1 48 67.89 71.323 71.323 0 0 1 -7.82 32.68 7.992 7.992 0 0 0 1.65 9.45 95.068 95.068 0 0 1 30.17 69.87c0 24.64-9.48 45.13-27.41 59.25z" fill="#DA0037" data-original="#004fac" style="" class=""/><path d="m256 368a40 40 0 1 0 -40-40 40.045 40.045 0 0 0 40 40zm0-64a24 24 0 1 1 -24 24 24.028 24.028 0 0 1 24-24z" fill="#DA0037" data-original="#004fac" style="" class=""/><path d="m296 400h-80a8 8 0 0 0 -8 8v24a8 8 0 0 0 8 8h80a8 8 0 0 0 8-8v-24a8 8 0 0 0 -8-8zm-8 24h-64v-8h64z" fill="#DA0037" data-original="#004fac" style="" class=""/></g></g></g></svg>
