<?xml version="1.0"?>
<svg xmlns="http://www.w3.org/2000/svg" xmlns:xlink="http://www.w3.org/1999/xlink" xmlns:svgjs="http://svgjs.com/svgjs" version="1.1" width="512" height="512" x="0" y="0" viewBox="0 0 64 64" style="enable-background:new 0 0 512 512" xml:space="preserve" class=""><g><path xmlns="http://www.w3.org/2000/svg" d="m42 62h-20l1-4h18z" fill="#f3f3f3" data-original="#57a4ff" style="" class=""/><circle xmlns="http://www.w3.org/2000/svg" cx="40" cy="30" fill="#f3f3f3" r="2" data-original="#57a4ff" style="" class=""/><g xmlns="http://www.w3.org/2000/svg" fill="#004fac"><path d="m45 1h-26a1 1 0 0 0 -1 1v20a1 1 0 0 0 1 1h12v34h-8a1 1 0 0 0 -.97.757l-1 4a1 1 0 0 0 .97 1.243h20a1 1 0 0 0 .97-1.243l-1-4a1 1 0 0 0 -.97-.757h-8v-34h6v4a.9.9 0 0 0 .035.173 3 3 0 1 0 1.93 0 .915.915 0 0 0 .035-.173v-4h4a1 1 0 0 0 1-1v-20a1 1 0 0 0 -1-1zm-4.781 58 .5 2h-17.438l.5-2zm-.219-28a1 1 0 1 1 1-1 1 1 0 0 1 -1 1zm4-10h-24v-18h24z" fill="#DA0037" data-original="#004fac" style="" class=""/><path d="m22 6h4a1 1 0 0 0 0-2h-4a1 1 0 0 0 0 2z" fill="#DA0037" data-original="#004fac" style="" class=""/><path d="m29 6h1a1 1 0 0 0 0-2h-1a1 1 0 0 0 0 2z" fill="#DA0037" data-original="#004fac" style="" class=""/></g></g></svg>
