<svg id="Calque_1" data-name="Calque 1" xmlns="http://www.w3.org/2000/svg" viewBox="0 0 133.07 22.4"><defs><style>.cls-1{fill:#f3f3f3;}.cls-2{fill:#d2d2d2;}.cls-3{fill:#da0037;}.cls-4{fill:#b2002d;}.cls-5{fill:#252a34;}</style></defs><title>lgb_logo</title><path class="cls-1" d="M14.3.5,4.6,5.2c-.1.1-.2.2-.2.3V17c0,.1.1.3.2.3L14.3,22a.64.64,0,0,0,.6,0l9.7-4.7c.1-.1.2-.2.2-.3V5.5c0-.1-.1-.3-.2-.3L15,.5A.85.85,0,0,0,14.3.5Z" transform="translate(-4.1 -0.1)"/><path class="cls-2" d="M4.5,5.3c0,.1-.1.1-.1.2V17c0,.1.1.3.2.3L14.3,22c.1,0,.2.1.3.1V10.3Z" transform="translate(-4.1 -0.1)"/><path class="cls-1" d="M24.8,5.3c0,.1.1.1.1.2V17c0,.1-.1.3-.2.3L15,22.1c-.1,0-.2.1-.3.1V10.3Z" transform="translate(-4.1 -0.1)"/><polygon class="cls-3" points="17.3 6.9 7.1 2 4.4 3.3 14.6 8.2 17.3 6.9"/><path class="cls-4" d="M18.7,8.3v3.8c0,.1.1.2.3.2l2.2-1.1c.1-.1.2-.2.2-.3V7Z" transform="translate(-4.1 -0.1)"/><path class="cls-5" d="M25,5,14.8.1h-.3L4.3,5c-.1.1-.2.2-.2.3v12c0,.1.1.2.2.3l10.2,4.9h.2L25,17.6c.1-.1.2-.2.2-.3V5.3C25.2,5.2,25.1,5.1,25,5ZM14.7.8l9.5,4.6L21.5,6.7h-.1L12,2.2ZM11.2,2.4,20.6,7l-1.9.9L9.2,3.4ZM19,8.5l1.8-.9v3.5L19,12ZM15,21.7V10.5l2.3-1.1a.4.4,0,0,0,.2-.4.4.4,0,0,0-.4-.2L14.8,9.9l-.9-.4c-.2-.1-.4,0-.4.2s0,.4.2.4l.9.4V21.8L5,17.2V5.8l7,3.6h.1c.1,0,.2-.1.3-.2s0-.4-.2-.4l-7-3.5L8.5,3.7l9.9,4.8h0v4c0,.1.1.2.2.3s.1.1.2.1h.1l2.5-1.2c.1-.1.2-.2.2-.3v-4l3-1.5V17.2Z" transform="translate(-4.1 -0.1)"/><path class="cls-5" d="M7.5,15.8,6,15.1c-.2-.1-.4,0-.4.2s0,.4.2.4l1.5.7h.1c.1,0,.2-.1.3-.2A.76.76,0,0,0,7.5,15.8Z" transform="translate(-4.1 -0.1)"/><path class="cls-5" d="M8.9,14.9,6,13.5c-.2-.1-.4,0-.4.2s0,.4.2.4l2.9,1.4h.1c.1,0,.2-.1.3-.2A.76.76,0,0,0,8.9,14.9Z" transform="translate(-4.1 -0.1)"/><path d="M41.75,3H44V15.75H41.75Z" transform="translate(-4.1 -0.1)"/><path d="M48.91,12c.06,1.58,1.3,2.27,2.7,2.27a6.58,6.58,0,0,0,2.43-.4l.33,1.53a8.19,8.19,0,0,1-3.06.54,4.15,4.15,0,0,1-4.52-4.43c0-2.43,1.47-4.72,4.28-4.72s3.78,2.34,3.78,4.27a5.2,5.2,0,0,1-.07.94Zm3.86-1.55A1.89,1.89,0,0,0,51,8.3a2.17,2.17,0,0,0-2,2.14Z" transform="translate(-4.1 -0.1)"/><path d="M57.5,13.72a5,5,0,0,0,2.25.63c1,0,1.4-.4,1.4-1s-.36-.9-1.44-1.28C58,11.5,57.28,10.56,57.3,9.54c0-1.55,1.28-2.76,3.31-2.76a5.2,5.2,0,0,1,2.33.53L62.5,8.87a4,4,0,0,0-1.85-.5c-.79,0-1.23.38-1.23.92s.42.82,1.53,1.22c1.59.58,2.33,1.39,2.34,2.68,0,1.59-1.24,2.74-3.56,2.74a5.69,5.69,0,0,1-2.67-.61Z" transform="translate(-4.1 -0.1)"/><path d="M73.72,7c0,.63-.07,1.33-.07,2.39v5.06c0,2-.4,3.22-1.25,4a4.62,4.62,0,0,1-3.17,1,5.58,5.58,0,0,1-2.89-.72l.39-1.2a4.94,4.94,0,0,0,2.56.68c1.62,0,2.81-.85,2.81-3v-1h0a3.09,3.09,0,0,1-2.77,1.45c-2.16,0-3.71-1.83-3.71-4.25,0-3,1.93-4.62,3.92-4.62a2.88,2.88,0,0,1,2.72,1.51h0L72.33,7Zm-1.64,3.43A2.33,2.33,0,0,0,72,9.75a2.29,2.29,0,0,0-2.22-1.67c-1.51,0-2.59,1.28-2.59,3.29,0,1.72.87,3.14,2.58,3.14A2.31,2.31,0,0,0,72,12.89a2.79,2.79,0,0,0,.13-.85Z" transform="translate(-4.1 -0.1)"/><path d="M77.14,9.75c0-1,0-1.9-.08-2.71h1.39l0,1.71h.08A2.61,2.61,0,0,1,81,6.84a2.06,2.06,0,0,1,.45,0v1.5a2.17,2.17,0,0,0-.54-.06,2.23,2.23,0,0,0-2.13,2,5,5,0,0,0-.07.73v4.65H77.14Z" transform="translate(-4.1 -0.1)"/><path d="M91.7,11.32A4.26,4.26,0,0,1,87.36,16a4.15,4.15,0,0,1-4.18-4.49A4.25,4.25,0,0,1,87.5,6.84C90,6.84,91.7,8.66,91.7,11.32Zm-6.91.09c0,1.91,1.09,3.35,2.64,3.35s2.65-1.42,2.65-3.39C90.08,9.9,89.34,8,87.47,8S84.79,9.75,84.79,11.41Z" transform="translate(-4.1 -0.1)"/><path d="M94.45,14.13a4.13,4.13,0,0,0,2.09.63c1.15,0,1.69-.58,1.69-1.3s-.45-1.17-1.62-1.6c-1.57-.56-2.3-1.42-2.3-2.47,0-1.4,1.13-2.55,3-2.55a4.35,4.35,0,0,1,2.15.54l-.4,1.15A3.34,3.34,0,0,0,97.28,8c-.94,0-1.46.54-1.46,1.18s.52,1,1.66,1.48c1.51.58,2.28,1.33,2.28,2.63,0,1.53-1.19,2.61-3.26,2.61a5,5,0,0,1-2.45-.59Z" transform="translate(-4.1 -0.1)"/><path d="M102.57,15.75c0-.59.07-1.57.07-2.47V3h2.22V8.19h0a3.17,3.17,0,0,1,2.81-1.41c2.14,0,3.67,1.79,3.66,4.45,0,3.15-2,4.72-4,4.72a3,3,0,0,1-2.78-1.51h0l-.11,1.31Zm2.29-3.62a2.19,2.19,0,0,0,0,.52,2,2,0,0,0,2,1.55c1.39,0,2.23-1.11,2.23-2.88,0-1.55-.73-2.81-2.21-2.81a2.07,2.07,0,0,0-2,1.62,2.42,2.42,0,0,0-.07.58Z" transform="translate(-4.1 -0.1)"/><path d="M114.14,9.81c0-1.19,0-2-.07-2.83H116l.07,1.68h.07a2.61,2.61,0,0,1,2.4-1.88,2.12,2.12,0,0,1,.52.06V8.93a2.8,2.8,0,0,0-.65-.08,2,2,0,0,0-2,1.68,3.47,3.47,0,0,0-.07.68v4.54h-2.22Z" transform="translate(-4.1 -0.1)"/><path d="M126.29,15.75l-.14-1h-.05A3.28,3.28,0,0,1,123.5,16a2.6,2.6,0,0,1-2.75-2.61c0-2.22,2-3.33,5.2-3.32V9.88c0-.58-.23-1.53-1.78-1.53a4.6,4.6,0,0,0-2.36.65l-.43-1.44a6.27,6.27,0,0,1,3.17-.78c2.81,0,3.62,1.79,3.62,3.69v3.17a14.14,14.14,0,0,0,.12,2.11ZM126,11.46c-1.57,0-3.07.31-3.07,1.64a1.16,1.16,0,0,0,1.27,1.26,1.77,1.77,0,0,0,1.72-1.2,1.44,1.44,0,0,0,.08-.49Z" transform="translate(-4.1 -0.1)"/><path d="M131.37,13.72a5,5,0,0,0,2.25.63c1,0,1.4-.4,1.4-1s-.36-.9-1.44-1.28c-1.71-.59-2.43-1.53-2.41-2.55,0-1.55,1.28-2.76,3.31-2.76a5.17,5.17,0,0,1,2.33.53l-.44,1.56a4,4,0,0,0-1.85-.5c-.79,0-1.23.38-1.23.92s.42.82,1.54,1.22c1.58.58,2.32,1.39,2.34,2.68,0,1.59-1.25,2.74-3.57,2.74a5.62,5.62,0,0,1-2.66-.61Z" transform="translate(-4.1 -0.1)"/></svg>