<?xml version="1.0"?>
<svg xmlns="http://www.w3.org/2000/svg" xmlns:xlink="http://www.w3.org/1999/xlink" xmlns:svgjs="http://svgjs.com/svgjs" version="1.1" width="512" height="512" x="0" y="0" viewBox="0 0 512 512" style="enable-background:new 0 0 512 512" xml:space="preserve" class=""><g><g xmlns="http://www.w3.org/2000/svg"><path d="m160 312h192v48h-192z" fill="#f3f3f3" data-original="#57a4ff" style="" class=""/><g fill="#004fac"><path d="m384 488h-47l14.11-120h.89a8 8 0 0 0 8-8v-48a8 8 0 0 0 -8-8h-88v-24h48a48.051 48.051 0 0 0 48-48v-24a8 8 0 0 0 -8-8h-56a47.8 47.8 0 0 0 -32 12.26v-76.14c10.23-2.23 19.55-8.73 26.79-18.87 8.52-11.92 13.21-27.64 13.21-44.25 0-34.95-41.96-61.66-43.75-62.78a8 8 0 0 0 -8.5 0c-1.79 1.12-43.75 27.83-43.75 62.78 0 16.61 4.69 32.33 13.21 44.25 7.24 10.14 16.56 16.64 26.79 18.87v36.14a47.8 47.8 0 0 0 -32-12.26h-56a8 8 0 0 0 -8 8v24a48.051 48.051 0 0 0 48 48h48v64h-88a8 8 0 0 0 -8 8v48a8 8 0 0 0 8 8h.89l14.11 120h-79a8 8 0 0 0 0 16h288a8 8 0 0 0 0-16zm-88-272h48v16a32.042 32.042 0 0 1 -32 32h-48v-16a32.042 32.042 0 0 1 32-32zm-72-143c0-20.62 22.42-39.25 32-46.27 9.58 7.02 32 25.65 32 46.27 0 26.02-14.65 48-32 48s-32-21.98-32-48zm-24 151a32.042 32.042 0 0 1 -32-32v-16h48a32.042 32.042 0 0 1 32 32v16zm-32 128v-32h176v32zm152.89 136h-129.78l-14.11-120h158z" fill="#DA0037" data-original="#004fac" style="" class=""/><path d="m416 488h-8a8 8 0 0 0 0 16h8a8 8 0 0 0 0-16z" fill="#DA0037" data-original="#004fac" style="" class=""/></g></g></g></svg>
