<?xml version="1.0"?>
<svg xmlns="http://www.w3.org/2000/svg" xmlns:xlink="http://www.w3.org/1999/xlink" xmlns:svgjs="http://svgjs.com/svgjs" version="1.1" width="512" height="512" x="0" y="0" viewBox="0 0 512 512" style="enable-background:new 0 0 512 512" xml:space="preserve" class=""><g><g xmlns="http://www.w3.org/2000/svg"><g fill="#57a4ff"><path d="m488.11 240v208h-464.22v-208a32 32 0 0 1 32-32h24.22a32 32 0 0 1 32 32v96h287.78v-96a32 32 0 0 1 32-32h24.22a32 32 0 0 1 32 32z" fill="#f3f3f3" data-original="#57a4ff" style="" class=""/><path d="m112 335h.01c-.01.33-.01.67-.01 1z" fill="#f3f3f3" data-original="#57a4ff" style="" class=""/><path d="m112.01 335c.01-.92.05-1.83.1-2.74v2.74z" fill="#f3f3f3" data-original="#57a4ff" style="" class=""/><path d="m399.99 335h-.1v-2.74c.05.91.09 1.82.1 2.74z" fill="#f3f3f3" data-original="#57a4ff" style="" class=""/><path d="m400 335v1c0-.33 0-.67-.01-1z" fill="#f3f3f3" data-original="#57a4ff" style="" class=""/><path d="m368 16h-224a64 64 0 0 0 -64 64v128h.11a32 32 0 0 1 32 32v92.26a63.994 63.994 0 0 1 63.89-60.26h160a63.994 63.994 0 0 1 63.89 60.26v-92.26a32 32 0 0 1 32-32h.11v-128a64 64 0 0 0 -64-64zm-177 136a16 16 0 1 1 16-16 16 16 0 0 1 -16 16zm65 0a16 16 0 1 1 16-16 16 16 0 0 1 -16 16zm64 0a16 16 0 1 1 16-16 16 16 0 0 1 -16 16z" fill="#f3f3f3" data-original="#57a4ff" style="" class=""/></g><g fill="#004fac"><path d="m456.11 200h-16.11v-120a72.083 72.083 0 0 0 -72-72h-224a72.083 72.083 0 0 0 -72 72v120h-16.11a40.04 40.04 0 0 0 -40 40v208a8 8 0 0 0 8 8h8.11v40a8 8 0 0 0 8 8h24a8 8 0 0 0 7.89-6.68l6.89-41.32h354.44l6.89 41.32a8 8 0 0 0 7.89 6.68h24a8 8 0 0 0 8-8v-40h8.11a8 8 0 0 0 8-8v-208a40.04 40.04 0 0 0 -40-40zm-368.11-120a56.062 56.062 0 0 1 56-56h224a56.062 56.062 0 0 1 56 56v120.79a40.061 40.061 0 0 0 -32.11 39.21v50.69a71.859 71.859 0 0 0 -55.89-26.69h-160a71.859 71.859 0 0 0 -55.89 26.69v-50.69a40.061 40.061 0 0 0 -32.11-39.21zm303.42 248h-270.84a56.086 56.086 0 0 1 55.42-48h160a56.086 56.086 0 0 1 55.42 48zm-334.2 160h-9.22v-32h14.56zm406.78 0h-9.22l-5.34-32h14.56zm16.11-48h-448.22v-200a24.032 24.032 0 0 1 24-24h24.22a24.032 24.032 0 0 1 24 24v92.44c-.03.69-.08 1.37-.09 2.06a4.18 4.18 0 0 0 -.02.5v1a8 8 0 0 0 8 8h288a8 8 0 0 0 8-8v-1a4.18 4.18 0 0 0 -.02-.5c-.01-.69-.06-1.37-.09-2.06v-92.44a24.032 24.032 0 0 1 24-24h24.22a24.032 24.032 0 0 1 24 24z" fill="#DA0037" data-original="#004fac" style="" class=""/><path d="m256 160a24 24 0 1 0 -24-24 24.028 24.028 0 0 0 24 24zm0-32a8 8 0 1 1 -8 8 8.009 8.009 0 0 1 8-8z" fill="#DA0037" data-original="#004fac" style="" class=""/><path d="m191 160a24 24 0 1 0 -24-24 24.028 24.028 0 0 0 24 24zm0-32a8 8 0 1 1 -8 8 8.009 8.009 0 0 1 8-8z" fill="#DA0037" data-original="#004fac" style="" class=""/><path d="m320 160a24 24 0 1 0 -24-24 24.028 24.028 0 0 0 24 24zm0-32a8 8 0 1 1 -8 8 8.009 8.009 0 0 1 8-8z" fill="#DA0037" data-original="#004fac" style="" class=""/><path d="m96 408h-40a8 8 0 0 0 0 16h40a8 8 0 0 0 0-16z" fill="#DA0037" data-original="#004fac" style="" class=""/><path d="m128 408h-8a8 8 0 0 0 0 16h8a8 8 0 0 0 0-16z" fill="#DA0037" data-original="#004fac" style="" class=""/></g></g></g></svg>
