<?xml version="1.0"?>
<svg xmlns="http://www.w3.org/2000/svg" xmlns:xlink="http://www.w3.org/1999/xlink" xmlns:svgjs="http://svgjs.com/svgjs" version="1.1" width="512" height="512" x="0" y="0" viewBox="0 0 512 512" style="enable-background:new 0 0 512 512" xml:space="preserve" class=""><g><g xmlns="http://www.w3.org/2000/svg"><g fill="#57a4ff"><path d="m16 104h480v256h-480z" fill="#f3f3f3" data-original="#57a4ff" style="" class=""/><path d="m48 440h24l8-32h-32z" fill="#f3f3f3" data-original="#57a4ff" style="" class=""/><path d="m440 440h24v-32h-32z" fill="#f3f3f3" data-original="#57a4ff" style="" class=""/></g><g fill="#004fac"><path d="m496 96h-480a8 8 0 0 0 -8 8v304a8 8 0 0 0 8 8h24v24a8 8 0 0 0 8 8h24a8 8 0 0 0 7.76-6.06l6.49-25.94h339.5l6.49 25.94a8 8 0 0 0 7.76 6.06h24a8 8 0 0 0 8-8v-24h24a8 8 0 0 0 8-8v-304a8 8 0 0 0 -8-8zm-430.25 336h-9.75v-16h13.75zm390.25 0h-9.75l-4-16h13.75zm32-32h-464v-32h464zm0-48h-464v-240h464z" fill="#fc7061" data-original="#004fac" style="" class=""/><path d="m272 376h-32a8 8 0 0 0 0 16h32a8 8 0 0 0 0-16z" fill="#fc7061" data-original="#004fac" style="" class=""/></g></g></g></svg>
