<?xml version="1.0"?>
<svg xmlns="http://www.w3.org/2000/svg" xmlns:xlink="http://www.w3.org/1999/xlink" xmlns:svgjs="http://svgjs.com/svgjs" version="1.1" width="512" height="512" x="0" y="0" viewBox="0 0 64 64" style="enable-background:new 0 0 512 512" xml:space="preserve" class=""><g><g xmlns="http://www.w3.org/2000/svg" id="Washing_machine" data-name="Washing machine"><path d="m8 2v10h17v-10zm5 7a2 2 0 1 1 2-2 2.006 2.006 0 0 1 -2 2zm7 0a2 2 0 1 1 2-2 2.006 2.006 0 0 1 -2 2z" fill="#f3f3f3" data-original="#57a4ff" style="" class=""/><path d="m25 2h31v10h-31z" fill="#f3f3f3" data-original="#57a4ff" style="" class=""/><path d="m8 58h48v4h-48z" fill="#f3f3f3" data-original="#57a4ff" style="" class=""/><path d="m32 16a19 19 0 1 0 19 19 19 19 0 0 0 -19-19zm0 34a15 15 0 1 1 15-15 15.005 15.005 0 0 1 -15 15z" fill="#f3f3f3" data-original="#57a4ff" style="" class=""/><path d="m49 51h4v4h-4z" fill="#f3f3f3" data-original="#57a4ff" style="" class=""/><g fill="#004fac"><path d="m56 1h-48a1 1 0 0 0 -1 1v60a1 1 0 0 0 1 1h48a1 1 0 0 0 1-1v-60a1 1 0 0 0 -1-1zm-47 12h46v44h-46zm46-10v8h-29v-8zm-46 0h15v8h-15zm46 58h-46v-2h46z" fill="#DA0037" data-original="#004fac" style="" class=""/><path d="m32 15a20 20 0 1 0 20 20 20.023 20.023 0 0 0 -20-20zm0 38a18 18 0 1 1 18-18 18.021 18.021 0 0 1 -18 18z" fill="#DA0037" data-original="#004fac" style="" class=""/><path d="m32 19a16 16 0 1 0 16 16 16.019 16.019 0 0 0 -16-16zm0 30a14 14 0 1 1 14-14 14.015 14.015 0 0 1 -14 14z" fill="#DA0037" data-original="#004fac" style="" class=""/><path d="m32 23a12.013 12.013 0 0 0 -12 12 1 1 0 0 0 2 0 10.011 10.011 0 0 1 10-10 1 1 0 0 0 0-2z" fill="#DA0037" data-original="#004fac" style="" class=""/><path d="m13 4a3 3 0 1 0 3 3 3 3 0 0 0 -3-3zm0 4a1 1 0 1 1 1-1 1 1 0 0 1 -1 1z" fill="#DA0037" data-original="#004fac" style="" class=""/><path d="m20 4a3 3 0 1 0 3 3 3 3 0 0 0 -3-3zm0 4a1 1 0 1 1 1-1 1 1 0 0 1 -1 1z" fill="#DA0037" data-original="#004fac" style="" class=""/><path d="m46 9h7a1 1 0 0 0 0-2h-7a1 1 0 0 0 0 2z" fill="#DA0037" data-original="#004fac" style="" class=""/><path d="m41 9h2a1 1 0 0 0 0-2h-2a1 1 0 0 0 0 2z" fill="#DA0037" data-original="#004fac" style="" class=""/><path d="m49 6h4a1 1 0 0 0 0-2h-4a1 1 0 0 0 0 2z" fill="#DA0037" data-original="#004fac" style="" class=""/><path d="m11 17h6a1 1 0 0 0 0-2h-6a1 1 0 0 0 0 2z" fill="#DA0037" data-original="#004fac" style="" class=""/><path d="m13 19a1 1 0 0 0 -1-1h-1a1 1 0 0 0 0 2h1a1 1 0 0 0 1-1z" fill="#DA0037" data-original="#004fac" style="" class=""/><path d="m53 50h-4a1 1 0 0 0 -1 1v4a1 1 0 0 0 1 1h4a1 1 0 0 0 1-1v-4a1 1 0 0 0 -1-1zm-1 4h-2v-2h2z" fill="#DA0037" data-original="#004fac" style="" class=""/></g></g></g></svg>
